<svg xmlns="http://www.w3.org/2000/svg" viewBox="0 0 106.28 25.28"><defs><style>.cls-1{fill:#55468d;}.cls-2{fill:#fff;}.cls-3{fill:#fbba33;}</style></defs><g id="Camada_2" data-name="Camada 2"><g id="Camada_1-2" data-name="Camada 1"><path class="cls-1" d="M98.68,0a6.77,6.77,0,0,0-4.23,1.46,9.56,9.56,0,0,0-2.48,3,9.7,9.7,0,0,0-2.48-3A6.77,6.77,0,0,0,85.26,0c-4.34,0-7.61,3.55-7.61,8.25,0,5.08,4.08,8.56,10.26,13.82,1,.89,2.23,1.91,3.47,3a.9.9,0,0,0,.59.22.94.94,0,0,0,.59-.22C93.79,24,95,23,96,22.07c6.18-5.26,10.25-8.74,10.25-13.82C106.28,3.55,103,0,98.68,0Z"/><path class="cls-2" d="M59.85,0a6.79,6.79,0,0,0-4.23,1.46,9.7,9.7,0,0,0-2.48,3,9.65,9.65,0,0,0-2.47-3A6.8,6.8,0,0,0,46.43,0c-4.33,0-7.6,3.55-7.6,8.25,0,5.08,4.07,8.56,10.25,13.82,1.05.89,2.24,1.91,3.47,3a.94.94,0,0,0,.59.22.9.9,0,0,0,.59-.22c1.24-1.08,2.43-2.1,3.48-3,6.17-5.26,10.25-8.74,10.25-13.82C67.46,3.55,64.19,0,59.85,0Z"/><path class="cls-3" d="M21,0a6.8,6.8,0,0,0-4.24,1.46,9.65,9.65,0,0,0-2.47,3,9.7,9.7,0,0,0-2.48-3A6.79,6.79,0,0,0,7.61,0C3.27,0,0,3.55,0,8.25c0,5.08,4.08,8.56,10.26,13.82,1,.89,2.23,1.91,3.47,3a.9.9,0,0,0,.59.22.94.94,0,0,0,.59-.22c1.23-1.08,2.42-2.1,3.47-3,6.17-5.26,10.25-8.74,10.25-13.82C28.63,3.55,25.36,0,21,0Z"/></g></g></svg>