<svg xmlns="http://www.w3.org/2000/svg" viewBox="0 0 429.05 40.25"><defs><style>.cls-1{fill:#fff;}</style></defs><g id="Camada_2" data-name="Camada 2"><g id="Camada_1-2" data-name="Camada 1"><rect class="cls-1" x="377" y="20.28" width="20.18" height="4.47" transform="translate(362.53 409.48) rotate(-89.7)"/><polygon class="cls-1" points="376.65 22.48 368.89 22.44 368.95 12.34 364.48 12.31 364.37 32.49 368.84 32.51 368.87 26.82 376.63 26.86 376.6 32.55 381.07 32.58 381.18 12.4 376.7 12.38 376.65 22.48"/><path class="cls-1" d="M423.81,12.62h-3.09l-3.08,0a5.25,5.25,0,0,0-5.29,5.23l0,4.83h0l0,7.85v2.24h4.47V27.07H419l3.28,0h2.24l0,2.23V32.8h2.23l2.24,0V30.59l0-7.85,0-4.83A5.28,5.28,0,0,0,423.81,12.62Zm.74,10.09-7.76,0v0l0-3.35a2.24,2.24,0,0,1,2-2.21l3.75,0h0a2.24,2.24,0,0,1,2,2.23Z"/><path class="cls-1" d="M397.68,22.57V19.22A2.24,2.24,0,0,1,399.94,17l8.66,0,0-4.5-10.1,0a5.25,5.25,0,0,0-5.29,5.23l0,4.83-.05,10.09,4.47,0,0-5.7,6.71.05,0-4.38-6.74-.05h0Z"/><path class="cls-1" d="M325.27,24.53l-.09-.1A10.86,10.86,0,0,0,329,30a8.77,8.77,0,0,0,2.45,1.31V28.63A20.8,20.8,0,0,1,328,26.86,15.57,15.57,0,0,1,325.27,24.53Z"/><path class="cls-1" d="M325.28,17.17c-.56-.47-1.14-1-1.77-1.55a19.4,19.4,0,0,1-2.38-2.72,15.74,15.74,0,0,0,3.78,10.45l.51.56.25.27a14.3,14.3,0,0,0,2.63,2.22,22.88,22.88,0,0,0,3.08,1.65,11,11,0,0,0-2.13-6.49l-.23-.35A16.44,16.44,0,0,0,325.28,17.17Z"/><path class="cls-1" d="M346.44,28.74c0,.52,0,1.51,0,2.65a9,9,0,0,0,2.46-1.29,10.84,10.84,0,0,0,3.83-5.5l-.07.09A15,15,0,0,1,349.84,27,22.51,22.51,0,0,1,346.44,28.74Z"/><path class="cls-1" d="M352.69,17.34a16.49,16.49,0,0,0-3.79,4l-.23.35a11,11,0,0,0-2.21,6.47,24,24,0,0,0,3.11-1.62,14.81,14.81,0,0,0,2.66-2.2,2.82,2.82,0,0,1,.23-.26c.14-.14.32-.32.52-.55a15.61,15.61,0,0,0,3.89-10.41,18.25,18.25,0,0,1-2.41,2.69C353.83,16.4,353.25,16.87,352.69,17.34Z"/><path class="cls-1" d="M348.45,21.05a17.33,17.33,0,0,1,3.9-4.12c.56-.46,1.13-.94,1.75-1.51a17.86,17.86,0,0,0,2.81-3.29q.21-.32.39-.63A20.1,20.1,0,0,0,360.18,3a19.53,19.53,0,0,0-13.39,8.76,19.78,19.78,0,0,0-3.08,10c0,.7,0,1,0,1.31,0,.51,0,.91,0,3,0,.37,0,.95,0,1.54s0,1.32,0,1.71v.26l-9.49-.06v-.26c0-.39,0-1.06,0-1.72s0-1.18,0-1.54c0-2.12,0-2.52,0-3,0-.29,0-.61,0-1.3A19.55,19.55,0,0,0,317.94,2.7a20,20,0,0,0,2.78,8.58c.12.21.25.42.38.63a17.82,17.82,0,0,0,2.78,3.32c.61.58,1.18,1.06,1.74,1.53a17.12,17.12,0,0,1,3.85,4.16l.22.35a11.61,11.61,0,0,1,2.24,7v.17c0,.49,0,1.78,0,3.24,0,2.26,0,4.95,0,5.79h2.22c0-.94,0-4.12,0-5.31V31.9l9.53.08v.26c0,1.19,0,4.37,0,5.31l2.22,0c0-.85,0-3.54,0-5.8,0-1.46,0-2.75,0-3.23v-.18a11.57,11.57,0,0,1,2.31-7Z"/><path class="cls-1" d="M1.75,22.9a1.75,1.75,0,1,0,0,3.49,24,24,0,0,0,12.92-3.74,19.87,19.87,0,0,0-3.27-2.13A20.45,20.45,0,0,1,1.75,22.9Z"/><path class="cls-1" d="M24.26.39a1.75,1.75,0,0,0-1.75,1.75,20.94,20.94,0,0,1-2.24,9.39,20.84,20.84,0,0,1-2.49,3.77,15.58,15.58,0,0,1-1.05,1.21c-.37.38-.76.76-1.19,1.14L16,18l.28.19A21.07,21.07,0,0,1,18,19.52l.15.12.18.14.09-.09c.27-.24.55-.49.8-.76s.28-.31.41-.46a3.47,3.47,0,0,1,.25-.29A24.36,24.36,0,0,0,22.34,15,24.19,24.19,0,0,0,26,2.14,1.74,1.74,0,0,0,24.26.39Z"/><path class="cls-1" d="M38.5,13.86A24.15,24.15,0,0,0,25.55,17.6a20.54,20.54,0,0,0,3.29,2.13,20.76,20.76,0,0,1,9.66-2.38,1.75,1.75,0,1,0,0-3.49Z"/><polygon class="cls-1" points="22.02 20.21 22.02 20.21 22.01 20.23 22.01 20.23 22.02 20.21"/><path class="cls-1" d="M21.44,20.87c-.32.31-.62.65-.9,1l-.2.22a25,25,0,0,0-2.42,3.24,24.17,24.17,0,0,0-3.68,12.8,1.75,1.75,0,1,0,3.5,0A20.58,20.58,0,0,1,20,28.73a20.35,20.35,0,0,1,2.47-3.8,19.56,19.56,0,0,1,1.44-1.57,9.58,9.58,0,0,1,.82-.75l-.2-.13a25.14,25.14,0,0,1-2.62-2l-.1.09A3.73,3.73,0,0,0,21.44,20.87Z"/><path class="cls-1" d="M15.6,0a1.74,1.74,0,0,0-1.74,1.75A24.1,24.1,0,0,0,17.6,14.68a20.57,20.57,0,0,0,2.13-3.27,20.76,20.76,0,0,1-2.38-9.66A1.75,1.75,0,0,0,15.6,0Z"/><path class="cls-1" d="M20.52,28.85A20.72,20.72,0,0,1,22.9,38.5a1.75,1.75,0,1,0,3.49,0,24,24,0,0,0-3.75-12.94A20.37,20.37,0,0,0,20.52,28.85Z"/><path class="cls-1" d="M38.11,22.51a20.81,20.81,0,0,1-9.38-2.25,20.5,20.5,0,0,1-3.8-2.48c-.53-.44-.93-.8-1.3-1.15s-.65-.67-1-1.1a24.56,24.56,0,0,1-2.13,2.82l.12.13c.2.22.4.44.61.65l.58.52.42.36a26.1,26.1,0,0,0,2.62,2l.29.17.21.13A24.16,24.16,0,0,0,38.11,26a1.75,1.75,0,0,0,0-3.5Z"/><path class="cls-1" d="M18.78,20.89l-.06-.05a1.24,1.24,0,0,0-.18-.21c-.06-.06-.12-.1-.18-.15l-.18-.15-.34-.28-.15-.13c-.56-.47-1.15-.92-1.75-1.33l-.28-.2c-.23-.17-.46-.33-.7-.48A24.18,24.18,0,0,0,2.14,14.24a1.75,1.75,0,0,0,0,3.5A20.93,20.93,0,0,1,11.52,20a21.06,21.06,0,0,1,3.78,2.49l.25.21c.21.17.42.34.62.52l.15.09.05.05a1.43,1.43,0,0,0,.2.23c.35.35.71.73,1.09,1.15a25,25,0,0,1,2.12-2.82l-.13-.14c-.21-.24-.42-.47-.65-.7Z"/><path class="cls-1" d="M104.31,28.22a.1.1,0,0,0-.14.07,1,1,0,0,1-1.1.73c-.72,0-1.12-.38-1.12-1V26.69c0-.65.39-1,1.12-1a1,1,0,0,1,1.09.72.1.1,0,0,0,.14.06l.17-.06c.09,0,.1-.06.07-.14a1.56,1.56,0,0,0-3,.44V28a1.56,1.56,0,0,0,3,.42.1.1,0,0,0-.06-.14Z"/><path class="cls-1" d="M112.38,28.22a.1.1,0,0,0-.14.07,1,1,0,0,1-1.11.73A1,1,0,0,1,110,28V26.69c0-.65.39-1,1.11-1a1,1,0,0,1,1.1.72c0,.06.07.08.14.06l.17-.06c.09,0,.1-.06.07-.14a1.56,1.56,0,0,0-3,.44V28a1.32,1.32,0,0,0,1.51,1.39,1.35,1.35,0,0,0,1.49-1,.1.1,0,0,0-.07-.14Z"/><path class="cls-1" d="M116.43,25.38c-.08,0-.11,0-.11.11v1.64h-2.11V25.49c0-.08,0-.11-.1-.11h-.19c-.08,0-.11,0-.11.11V29.2c0,.09,0,.11.11.11h.19c.08,0,.1,0,.1-.11V27.51h2.11V29.2c0,.09,0,.11.11.11h.19c.07,0,.1,0,.1-.11V25.49c0-.07,0-.11-.1-.11Z"/><path class="cls-1" d="M119.55,25.3A1.33,1.33,0,0,0,118,26.69V28a1.53,1.53,0,0,0,3,0V26.69a1.33,1.33,0,0,0-1.52-1.39m1.12,2.7c0,.65-.39,1-1.12,1s-1.12-.37-1.12-1V26.69c0-.65.39-1,1.12-1s1.12.37,1.12,1Z"/><path class="cls-1" d="M122.77,28.94V27.51h1.71c.07,0,.1,0,.1-.11v-.16c0-.07,0-.11-.1-.11h-1.71V25.76h2c.07,0,.11,0,.11-.12v-.15a.1.1,0,0,0-.11-.11h-2.24c-.09,0-.12,0-.12.11V29.2c0,.09,0,.11.12.11h2.31a.1.1,0,0,0,.11-.11v-.15a.1.1,0,0,0-.11-.11Z"/><path class="cls-1" d="M126.4,25.38h-.18c-.09,0-.12,0-.12.11V29.2c0,.09,0,.11.12.11h.18c.08,0,.1,0,.1-.11V25.49c0-.08,0-.11-.1-.11"/><path class="cls-1" d="M130.24,28a.89.89,0,0,0-.36-.38,1,1,0,0,0,.89-1.08,1.06,1.06,0,0,0-1.17-1.15H128c-.09,0-.11,0-.11.11V29.2c0,.09,0,.11.11.11h.18c.08,0,.1,0,.1-.11V27.66h.75a.74.74,0,0,1,.79.48l.54,1.08c0,.06.1.09.22.09h.18c.08,0,.11,0,.06-.11Zm-.67-.71h-1.25V25.76h1.25a.76.76,0,1,1,0,1.52"/><path class="cls-1" d="M133.46,25.3c-1,0-1.53.52-1.53,1.39V28c0,.87.55,1.39,1.53,1.39A1.33,1.33,0,0,0,135,28V26.69a1.33,1.33,0,0,0-1.52-1.39m1.12,2.7c0,.65-.4,1-1.12,1s-1.13-.37-1.13-1V26.69c0-.65.4-1,1.13-1s1.12.37,1.12,1Z"/><path class="cls-1" d="M107.33,25.45a.16.16,0,0,0-.15-.09H107a.13.13,0,0,0-.13.1l-1.49,3.75c0,.07,0,.1.07.1h.15c.13,0,.17,0,.2-.09l.41-1.06H108l.41,1.06c0,.06.09.09.2.09h.16c.09,0,.11,0,.08-.1Zm-1,2.38.75-1.91.76,1.91Z"/><path class="cls-1" d="M101.35,13.07a1.79,1.79,0,0,1,1.87,1.08c.16.43.34.51.77.37l1.14-.4a.52.52,0,0,0,.37-.77c-.6-1.66-2-2.49-4.15-2.49-2.78,0-4.38,1.5-4.38,4v3c0,2.49,1.6,4,4.38,4,2.16,0,3.55-.83,4.15-2.49a.53.53,0,0,0-.37-.78L104,18.18c-.42-.17-.61-.06-.77.36a1.78,1.78,0,0,1-1.87,1.09c-1.31,0-2-.59-2-1.77v-3c0-1.18.65-1.77,2-1.77"/><path class="cls-1" d="M123,15.65a7.65,7.65,0,0,0-2.1-.47,6.34,6.34,0,0,1-1.54-.3c-.47-.16-.68-.43-.68-.8,0-.71.52-1,1.75-1a1.77,1.77,0,0,1,1.75,1c.22.41.37.48.77.3l1.13-.49c.43-.18.52-.38.33-.8-.7-1.48-1.86-2.18-4-2.18-2.68,0-4.23,1.35-4.23,3.32a2.94,2.94,0,0,0,.92,2.26,3.07,3.07,0,0,0,1,.53,5.75,5.75,0,0,0,1,.28c.29.05.66.11,1.13.17,1.29.13,2,.4,2,1.07s-.66,1.17-2,1.17a1.88,1.88,0,0,1-1.91-1c-.2-.45-.36-.51-.79-.35l-1.08.38c-.42.17-.52.35-.39.78.59,1.6,2,2.4,4.17,2.4a5.08,5.08,0,0,0,3.22-.93,3,3,0,0,0,1.19-2.47,3,3,0,0,0-.83-2.22,3.28,3.28,0,0,0-.92-.57"/><path class="cls-1" d="M131.33,11.56c-.13-.37-.31-.48-.74-.48h-1.14c-.44,0-.61.11-.75.51L125.15,21c-.14.4,0,.59.41.59h1c.73,0,.92-.12,1.08-.55l.48-1.4h3.66l.46,1.4c.14.43.37.55,1.1.55h1.12c.41,0,.54-.19.4-.59Zm-2.55,6.16,1.2-3.55,1.2,3.55Z"/><path class="cls-1" d="M112.36,11.56c-.13-.37-.31-.48-.74-.48h-1.14a.65.65,0,0,0-.75.51L106.19,21c-.15.4,0,.59.4.59h1c.73,0,.92-.12,1.09-.55l.47-1.4h3.67l.45,1.4c.14.43.38.55,1.1.55h1.12c.41,0,.55-.19.4-.59Zm-2.55,6.16,1.2-3.55,1.2,3.55Z"/><path class="cls-1" d="M54,15.65a7.66,7.66,0,0,0-2.09-.47,6.33,6.33,0,0,1-1.55-.3c-.47-.16-.68-.43-.68-.8,0-.71.52-1,1.75-1a1.78,1.78,0,0,1,1.75,1c.22.41.37.48.77.3l1.13-.49c.43-.18.52-.38.33-.8-.7-1.48-1.86-2.18-4-2.18-2.69,0-4.23,1.35-4.23,3.32a2.94,2.94,0,0,0,.92,2.26,3.07,3.07,0,0,0,1,.53,5.75,5.75,0,0,0,1.05.28c.29.05.66.11,1.13.17,1.29.13,2,.4,2,1.07s-.65,1.17-2,1.17a1.87,1.87,0,0,1-1.91-1c-.2-.45-.36-.51-.79-.35l-1.08.38c-.42.17-.52.35-.39.78.59,1.6,2,2.4,4.17,2.4a5.08,5.08,0,0,0,3.22-.93,3,3,0,0,0,1.19-2.47,3,3,0,0,0-.83-2.22,3.28,3.28,0,0,0-.92-.57"/><path class="cls-1" d="M81.76,21V13.28h2.31c.46,0,.61-.14.61-.6v-1c0-.46-.15-.61-.61-.61H77c-.46,0-.61.15-.61.61v1c0,.46.15.6.61.6h2.33V21c0,.46.14.61.6.61h1.2c.46,0,.61-.15.61-.61"/><path class="cls-1" d="M90.33,11.56c-.13-.37-.31-.48-.74-.48H88.45c-.43,0-.61.11-.74.51L84.16,21c-.15.4,0,.59.4.59h1c.73,0,.92-.12,1.09-.55l.47-1.4h3.67l.46,1.4c.13.43.37.55,1.1.55h1.11c.41,0,.55-.19.4-.59Zm-2.55,6.16L89,14.17l1.2,3.55Z"/><path class="cls-1" d="M65.46,21.62c.41,0,.55-.19.4-.59l-3.55-9.47c-.13-.37-.31-.48-.74-.48H60.43c-.44,0-.61.11-.75.51L56.14,21c-.15.4,0,.59.4.59h1c.73,0,.92-.12,1.08-.55l.48-1.4h3.66l.46,1.4c.14.43.38.55,1.1.55Zm-5.7-3.9L61,14.17l1.2,3.55Z"/><path class="cls-1" d="M74.71,11.08h-1.1c-.46,0-.61.15-.61.61v5.48l-3.82-5.81a.65.65,0,0,0-.58-.28H67.36c-.46,0-.61.15-.61.61V21c0,.46.15.61.61.61h1.1c.46,0,.61-.15.61-.61V15.47l3.85,5.87a.64.64,0,0,0,.6.28h1.2c.46,0,.59-.15.59-.61V11.69c0-.46-.13-.61-.59-.61"/><path class="cls-1" d="M51.71,28.94V27.51h1.71c.07,0,.1,0,.1-.11v-.16c0-.07,0-.11-.1-.11H51.71V25.76h2c.07,0,.1,0,.1-.12v-.15c0-.07,0-.11-.1-.11H51.42c-.08,0-.11,0-.11.11V29.2c0,.09,0,.11.11.11h2.32a.1.1,0,0,0,.11-.11v-.15a.1.1,0,0,0-.11-.11Z"/><path class="cls-1" d="M62.19,25.38H62c-.09,0-.11,0-.11.11V29.2c0,.09,0,.11.11.11h.18c.08,0,.11,0,.11-.11V25.49c0-.08,0-.11-.11-.11"/><path class="cls-1" d="M65.93,27.3a2.91,2.91,0,0,0-.77-.16,2.9,2.9,0,0,1-.65-.12.61.61,0,0,1-.5-.61c0-.47.37-.73,1-.73a1.08,1.08,0,0,1,1.09.65c0,.07.07.07.14.05l.17-.08c.07,0,.1-.08.06-.15A1.4,1.4,0,0,0,65,25.3c-.9,0-1.42.44-1.42,1.14a.93.93,0,0,0,.3.74,1,1,0,0,0,.35.19,1.87,1.87,0,0,0,.39.1l.42.06a2.65,2.65,0,0,1,.62.11.59.59,0,0,1,.46.6c0,.51-.37.77-1.1.77a1.1,1.1,0,0,1-1.12-.72.12.12,0,0,0-.15-.06l-.17.06a.11.11,0,0,0-.07.15,1.42,1.42,0,0,0,1.51.95c1,0,1.5-.43,1.5-1.16a1,1,0,0,0-.29-.74.87.87,0,0,0-.33-.19"/><path class="cls-1" d="M68.14,28.94V27.51h1.71c.07,0,.1,0,.1-.11v-.16c0-.07,0-.11-.1-.11H68.14V25.76h2c.07,0,.1,0,.1-.12v-.15c0-.07,0-.11-.1-.11H67.85c-.08,0-.11,0-.11.11V29.2c0,.09,0,.11.11.11h2.32a.1.1,0,0,0,.11-.11v-.15a.1.1,0,0,0-.11-.11Z"/><path class="cls-1" d="M73.78,28a.79.79,0,0,0-.36-.38,1,1,0,0,0,.9-1.08,1.06,1.06,0,0,0-1.17-1.15H71.58c-.08,0-.11,0-.11.11V29.2c0,.09,0,.11.11.11h.19c.08,0,.1,0,.1-.11V27.66h.75a.74.74,0,0,1,.79.48L74,29.22c0,.06.1.09.22.09h.18c.08,0,.1,0,.06-.11Zm-.67-.71H71.87V25.76h1.24a.76.76,0,1,1,0,1.52"/><path class="cls-1" d="M75.89,25.38h-.18c-.08,0-.11,0-.11.11V29.2c0,.09,0,.11.11.11h.18c.08,0,.11,0,.11-.11V25.49c0-.08,0-.11-.11-.11"/><path class="cls-1" d="M80.07,28.22a.11.11,0,0,0-.15.07A1.15,1.15,0,0,1,77.71,28V26.69c0-.65.38-1,1.11-1a1,1,0,0,1,1.09.72.1.1,0,0,0,.14.06l.18-.06c.08,0,.09-.06.06-.14a1.56,1.56,0,0,0-3,.44V28a1.56,1.56,0,0,0,3,.42c0-.07,0-.11-.06-.14Z"/><path class="cls-1" d="M83.23,24.28l-.9.56s0,.06,0,.11l.05.06a.1.1,0,0,0,.13,0l1-.51c.06,0,.06-.06,0-.12l-.08-.1c0-.05-.11-.05-.19,0"/><path class="cls-1" d="M82.91,25.3c-1,0-1.53.52-1.53,1.39V28c0,.87.54,1.39,1.53,1.39A1.33,1.33,0,0,0,84.43,28V26.69a1.33,1.33,0,0,0-1.52-1.39M84,28c0,.65-.4,1-1.12,1s-1.13-.37-1.13-1V26.69c0-.65.4-1,1.13-1S84,26,84,26.69Z"/><path class="cls-1" d="M88,28a.83.83,0,0,0-.36-.38,1,1,0,0,0,.89-1.08,1.06,1.06,0,0,0-1.16-1.15H85.84c-.08,0-.11,0-.11.11V29.2c0,.09,0,.11.11.11H86c.08,0,.11,0,.11-.11V27.66h.75a.75.75,0,0,1,.79.48l.54,1.08c0,.06.1.09.21.09h.19c.08,0,.1,0,0-.11Zm-.67-.71H86.13V25.76h1.24a.76.76,0,1,1,0,1.52"/><path class="cls-1" d="M91.13,25.38H90c-.08,0-.11,0-.11.11V29.2c0,.09,0,.11.11.11h1.17a1.41,1.41,0,0,0,1.61-1.46v-1a1.41,1.41,0,0,0-1.61-1.46m1.21,2.47c0,.69-.43,1.09-1.21,1.09h-.88V25.76h.88c.78,0,1.21.39,1.21,1.08Z"/><path class="cls-1" d="M48.32,25.38H47.15c-.08,0-.11,0-.11.11V29.2c0,.09,0,.11.11.11h1.17a1.41,1.41,0,0,0,1.61-1.46v-1a1.41,1.41,0,0,0-1.61-1.46m1.2,2.47c0,.69-.42,1.09-1.2,1.09h-.88V25.76h.88c.78,0,1.2.39,1.2,1.08Z"/><path class="cls-1" d="M94.32,25.38h-.18c-.08,0-.11,0-.11.11V29.2c0,.09,0,.11.11.11h.18c.08,0,.11,0,.11-.11V25.49c0-.08,0-.11-.11-.11"/><path class="cls-1" d="M97.46,25.45a.13.13,0,0,0-.14-.09h-.17a.14.14,0,0,0-.14.1l-1.48,3.75c0,.07,0,.1.07.1h.15c.13,0,.17,0,.19-.09l.42-1.06h1.73l.42,1.06c0,.06.08.09.2.09h.16c.08,0,.1,0,.08-.1Zm-1,2.38.76-1.91L98,27.83Z"/><path class="cls-1" d="M60.37,25.38h-.16c-.09,0-.11,0-.15.09L58.69,27.9l-1.37-2.43a.18.18,0,0,0-.16-.09H57c-.09,0-.11,0-.11.11V29.2c0,.09,0,.11.11.11h.15c.09,0,.11,0,.11-.11V26.15l1.22,2.16a.13.13,0,0,0,.14.08h.11a.11.11,0,0,0,.12-.08l1.23-2.19V29.2c0,.09,0,.11.11.11h.17c.08,0,.11,0,.11-.11V25.49c0-.08,0-.11-.11-.11"/><path class="cls-1" d="M207.4,11.59V3.73h1V6.55a2.16,2.16,0,0,1,1.71-.78,2.26,2.26,0,0,1,1.1.25,1.54,1.54,0,0,1,.67.69A3.25,3.25,0,0,1,212,8v3.6h-1V8a1.49,1.49,0,0,0-.31-1.06,1.18,1.18,0,0,0-.89-.33,1.7,1.7,0,0,0-.81.22,1.21,1.21,0,0,0-.53.61,2.67,2.67,0,0,0-.17,1.05v3.11Z"/><path class="cls-1" d="M212.49,8.75a2.93,2.93,0,0,1,.88-2.35,2.64,2.64,0,0,1,1.79-.63,2.58,2.58,0,0,1,1.92.77,2.91,2.91,0,0,1,.74,2.13,3.78,3.78,0,0,1-.33,1.73,2.3,2.3,0,0,1-1,1,2.69,2.69,0,0,1-1.37.35,2.55,2.55,0,0,1-1.93-.76,3,3,0,0,1-.74-2.21m1,0a2.43,2.43,0,0,0,.48,1.64,1.54,1.54,0,0,0,1.2.54,1.48,1.48,0,0,0,1.19-.55,2.47,2.47,0,0,0,.48-1.67,2.37,2.37,0,0,0-.48-1.6,1.59,1.59,0,0,0-2.39,0,2.41,2.41,0,0,0-.48,1.64"/><path class="cls-1" d="M217.91,9.89l1-.15a1.36,1.36,0,0,0,.45.88,1.91,1.91,0,0,0,2,0,.82.82,0,0,0,.32-.64.59.59,0,0,0-.29-.51,3.82,3.82,0,0,0-1-.33,9.61,9.61,0,0,1-1.48-.46,1.43,1.43,0,0,1-.62-.54,1.46,1.46,0,0,1-.21-.77,1.4,1.4,0,0,1,.18-.7,1.44,1.44,0,0,1,.47-.54,1.83,1.83,0,0,1,.61-.28,2.84,2.84,0,0,1,.84-.12,3.46,3.46,0,0,1,1.17.19,1.61,1.61,0,0,1,.75.53,2,2,0,0,1,.33.88l-.94.13a1,1,0,0,0-.37-.69,1.41,1.41,0,0,0-.87-.25,1.62,1.62,0,0,0-1,.22.65.65,0,0,0-.29.52.54.54,0,0,0,.12.34.81.81,0,0,0,.37.25c.1,0,.38.12.85.25a10.42,10.42,0,0,1,1.43.45,1.36,1.36,0,0,1,.64.51,1.42,1.42,0,0,1,.23.82,1.6,1.6,0,0,1-.28.91,1.91,1.91,0,0,1-.81.66,2.94,2.94,0,0,1-1.21.23,2.66,2.66,0,0,1-1.69-.46,2.14,2.14,0,0,1-.74-1.37"/><path class="cls-1" d="M223.13,13.78V5.9H224v.74a2,2,0,0,1,.7-.65,1.88,1.88,0,0,1,.95-.22,2.23,2.23,0,0,1,2.13,1.44,3.8,3.8,0,0,1,.28,1.49,3.81,3.81,0,0,1-.31,1.58,2.39,2.39,0,0,1-.91,1.07,2.34,2.34,0,0,1-1.26.37,1.92,1.92,0,0,1-.87-.2,2.14,2.14,0,0,1-.63-.52v2.78Zm.87-5a2.45,2.45,0,0,0,.45,1.62,1.35,1.35,0,0,0,1.07.53,1.4,1.4,0,0,0,1.11-.55,2.59,2.59,0,0,0,.46-1.68,2.5,2.5,0,0,0-.45-1.63,1.36,1.36,0,0,0-1.07-.54,1.39,1.39,0,0,0-1.09.57A2.59,2.59,0,0,0,224,8.78"/><path class="cls-1" d="M228.58,3.73h1V4.84h-1Zm0,2.17h1v5.69h-1Z"/><path class="cls-1" d="M232.46,10.73l.14.85a3.37,3.37,0,0,1-.73.09,1.63,1.63,0,0,1-.81-.17.94.94,0,0,1-.41-.43,3.4,3.4,0,0,1-.12-1.14V6.65h-.7V5.9h.7V4.49l1-.58v2h1v.75h-1V10a1.42,1.42,0,0,0,.06.53.37.37,0,0,0,.16.19.62.62,0,0,0,.33.07,2.43,2.43,0,0,0,.42,0"/><path class="cls-1" d="M236.47,10.89a3.67,3.67,0,0,1-1,.65,3.06,3.06,0,0,1-1.06.18,2,2,0,0,1-1.44-.46,1.49,1.49,0,0,1-.51-1.17,1.61,1.61,0,0,1,.19-.76,1.7,1.7,0,0,1,.5-.56,2.33,2.33,0,0,1,.7-.31,7.33,7.33,0,0,1,.85-.15A8.4,8.4,0,0,0,236.38,8c0-.13,0-.22,0-.25a1.06,1.06,0,0,0-.27-.83,1.62,1.62,0,0,0-1.1-.33,1.71,1.71,0,0,0-1,.24,1.53,1.53,0,0,0-.48.84l-.94-.13a2.28,2.28,0,0,1,.42-1,1.92,1.92,0,0,1,.85-.58,4,4,0,0,1,1.3-.2,3.51,3.51,0,0,1,1.18.17,1.58,1.58,0,0,1,.67.43,1.43,1.43,0,0,1,.3.66,5.68,5.68,0,0,1,.05.89V9.21a14,14,0,0,0,.06,1.7,1.86,1.86,0,0,0,.25.68h-1a1.85,1.85,0,0,1-.19-.7m-.09-2.15a7.22,7.22,0,0,1-1.57.36,3.79,3.79,0,0,0-.84.19.86.86,0,0,0-.38.32.84.84,0,0,0,.15,1.1,1.28,1.28,0,0,0,.86.26,1.92,1.92,0,0,0,1-.25,1.51,1.51,0,0,0,.64-.66,2.43,2.43,0,0,0,.15-1Z"/><rect class="cls-1" x="238.18" y="3.73" width="0.97" height="7.86"/><path class="cls-1" d="M210.35,31.2l.6.15a2,2,0,0,1-.68,1.11,1.85,1.85,0,0,1-1.18.38,2.22,2.22,0,0,1-1.18-.29,1.87,1.87,0,0,1-.69-.86,3.17,3.17,0,0,1-.23-1.2,2.77,2.77,0,0,1,.26-1.22,1.93,1.93,0,0,1,.76-.79,2.26,2.26,0,0,1,1.09-.27,1.87,1.87,0,0,1,1.13.34,1.76,1.76,0,0,1,.64,1l-.58.13a1.44,1.44,0,0,0-.46-.71,1.16,1.16,0,0,0-.74-.22,1.39,1.39,0,0,0-.86.25,1.21,1.21,0,0,0-.49.66,2.54,2.54,0,0,0-.14.86,2.8,2.8,0,0,0,.16,1,1.31,1.31,0,0,0,.52.63,1.48,1.48,0,0,0,.76.21,1.3,1.3,0,0,0,.85-.28,1.47,1.47,0,0,0,.46-.85"/><path class="cls-1" d="M213.35,32.37a2.13,2.13,0,0,1-.59.36,1.74,1.74,0,0,1-.61.11,1.2,1.2,0,0,1-.82-.26.91.91,0,0,1-.18-1.1.82.82,0,0,1,.29-.32,1.17,1.17,0,0,1,.39-.18,2.91,2.91,0,0,1,.49-.08,6,6,0,0,0,1-.19v-.15a.62.62,0,0,0-.15-.47A1.18,1.18,0,0,0,212,30a.79.79,0,0,0-.27.48l-.54-.07a1.38,1.38,0,0,1,.24-.56,1.08,1.08,0,0,1,.48-.33,2.4,2.4,0,0,1,.74-.11,1.88,1.88,0,0,1,.68.1.83.83,0,0,1,.38.24.89.89,0,0,1,.17.38,2.75,2.75,0,0,1,0,.5v.74a9.18,9.18,0,0,0,0,1,1.22,1.22,0,0,0,.14.39h-.57a1,1,0,0,1-.11-.4m0-1.23a4.29,4.29,0,0,1-.9.21,1.7,1.7,0,0,0-.48.11.51.51,0,0,0-.21.17.5.5,0,0,0-.08.27.44.44,0,0,0,.17.36.69.69,0,0,0,.48.15,1.17,1.17,0,0,0,.57-.14.88.88,0,0,0,.36-.38,1.3,1.3,0,0,0,.09-.55Z"/><path class="cls-1" d="M216.45,31.58l.54.07a1.41,1.41,0,0,1-.45.87,1.36,1.36,0,0,1-.9.32,1.4,1.4,0,0,1-1.07-.44,1.75,1.75,0,0,1-.41-1.24,2.19,2.19,0,0,1,.18-.92,1.18,1.18,0,0,1,.53-.59,1.48,1.48,0,0,1,.77-.2,1.35,1.35,0,0,1,.87.27,1.25,1.25,0,0,1,.43.76l-.54.08a.87.87,0,0,0-.27-.49.7.7,0,0,0-.47-.17.85.85,0,0,0-.67.3,1.43,1.43,0,0,0-.26.94,1.44,1.44,0,0,0,.25,1,.82.82,0,0,0,.65.3.77.77,0,0,0,.54-.2,1,1,0,0,0,.28-.61"/><path class="cls-1" d="M217.08,32.77V28.29h.55v1.6a1.27,1.27,0,0,1,1-.44,1.35,1.35,0,0,1,.62.14.84.84,0,0,1,.38.39,1.75,1.75,0,0,1,.12.73v2.06h-.55V30.71a.86.86,0,0,0-.18-.6.69.69,0,0,0-.51-.19.87.87,0,0,0-.46.13.71.71,0,0,0-.3.34,1.63,1.63,0,0,0-.1.6v1.78Z"/><path class="cls-1" d="M220,31.14a1.68,1.68,0,0,1,.5-1.33,1.51,1.51,0,0,1,1-.36,1.48,1.48,0,0,1,1.1.44A1.66,1.66,0,0,1,223,31.1a2.06,2.06,0,0,1-.19,1,1.27,1.27,0,0,1-.54.56,1.63,1.63,0,0,1-.79.2,1.47,1.47,0,0,1-1.1-.44,1.74,1.74,0,0,1-.42-1.26m.57,0a1.41,1.41,0,0,0,.27.94.89.89,0,0,0,.68.31.91.91,0,0,0,.69-.31,1.44,1.44,0,0,0,.27-.95,1.32,1.32,0,0,0-.28-.92.87.87,0,0,0-.68-.31.89.89,0,0,0-.68.31,1.39,1.39,0,0,0-.27.93"/><path class="cls-1" d="M225.51,31.72l.57.07a1.39,1.39,0,0,1-.5.77,1.45,1.45,0,0,1-.93.28,1.47,1.47,0,0,1-1.12-.44,1.7,1.7,0,0,1-.42-1.23,1.8,1.8,0,0,1,.42-1.27,1.43,1.43,0,0,1,1.09-.45,1.42,1.42,0,0,1,1.07.44,1.79,1.79,0,0,1,.41,1.25v.14h-2.42a1.25,1.25,0,0,0,.3.82.91.91,0,0,0,.68.29.86.86,0,0,0,.51-.16,1,1,0,0,0,.34-.51m-1.8-.89h1.81a1.18,1.18,0,0,0-.21-.61.84.84,0,0,0-.68-.32.92.92,0,0,0-.64.25,1,1,0,0,0-.28.68"/><path class="cls-1" d="M226.4,28.29H227v.63h-.55Zm0,1.23H227v3.25h-.55Z"/><path class="cls-1" d="M227.4,32.77V29.52h.5V30a1.18,1.18,0,0,1,.35-.45.61.61,0,0,1,.35-.11,1.09,1.09,0,0,1,.57.18l-.19.51a.81.81,0,0,0-.41-.12.46.46,0,0,0-.32.11.55.55,0,0,0-.21.3,2.15,2.15,0,0,0-.09.64v1.7Z"/><path class="cls-1" d="M228.91,31.14a1.68,1.68,0,0,1,.5-1.33,1.51,1.51,0,0,1,1-.36,1.48,1.48,0,0,1,1.1.44A1.66,1.66,0,0,1,232,31.1a2.06,2.06,0,0,1-.19,1,1.27,1.27,0,0,1-.54.56,1.63,1.63,0,0,1-.79.2,1.47,1.47,0,0,1-1.1-.44,1.74,1.74,0,0,1-.42-1.26m.57,0a1.41,1.41,0,0,0,.27.94.89.89,0,0,0,.68.31.87.87,0,0,0,.68-.31,1.38,1.38,0,0,0,.28-.95,1.37,1.37,0,0,0-.28-.92.9.9,0,0,0-1.36,0,1.39,1.39,0,0,0-.27.93"/><path class="cls-1" d="M235.69,32.77v-.41a1,1,0,0,1-.91.48,1.19,1.19,0,0,1-.71-.22,1.4,1.4,0,0,1-.51-.59,2.07,2.07,0,0,1-.18-.88,2.23,2.23,0,0,1,.17-.88,1.23,1.23,0,0,1,.48-.61,1.32,1.32,0,0,1,.73-.21,1.14,1.14,0,0,1,.52.12,1.17,1.17,0,0,1,.37.33V28.29h.55v4.48ZM234,31.15a1.45,1.45,0,0,0,.26.93.82.82,0,0,0,.62.31.76.76,0,0,0,.61-.3,1.32,1.32,0,0,0,.26-.9,1.5,1.5,0,0,0-.26-1,.79.79,0,0,0-.63-.32.78.78,0,0,0-.62.3,1.52,1.52,0,0,0-.24.95"/><path class="cls-1" d="M238.91,31.72l.56.07a1.38,1.38,0,0,1-.49.77,1.68,1.68,0,0,1-2.06-.16,1.7,1.7,0,0,1-.42-1.23,1.8,1.8,0,0,1,.42-1.27,1.45,1.45,0,0,1,1.1-.45,1.39,1.39,0,0,1,1.06.44,1.75,1.75,0,0,1,.41,1.25v.14h-2.42a1.25,1.25,0,0,0,.3.82.94.94,0,0,0,1.2.13,1.17,1.17,0,0,0,.34-.51m-1.81-.89h1.81a1,1,0,0,0-.21-.61.84.84,0,0,0-.68-.32.89.89,0,0,0-.63.25,1,1,0,0,0-.29.68"/><rect class="cls-1" x="241.32" y="28.29" width="0.59" height="4.48"/><path class="cls-1" d="M243.71,32.27l.08.49a2.17,2.17,0,0,1-.41.05.89.89,0,0,1-.47-.1.53.53,0,0,1-.23-.24,2.13,2.13,0,0,1-.07-.65V30h-.4v-.43h.4v-.8l.55-.33v1.13h.55V30h-.55v1.9a1,1,0,0,0,0,.3.26.26,0,0,0,.1.11.4.4,0,0,0,.18,0l.24,0"/><path class="cls-1" d="M246,32.37a2.09,2.09,0,0,1-.58.36,1.78,1.78,0,0,1-.61.11,1.19,1.19,0,0,1-.82-.26.92.92,0,0,1,.1-1.42,1.32,1.32,0,0,1,.4-.18,2.91,2.91,0,0,1,.49-.08,6,6,0,0,0,1-.19v-.15a.58.58,0,0,0-.16-.47.92.92,0,0,0-.62-.19,1,1,0,0,0-.57.14.8.8,0,0,0-.28.48l-.54-.07a1.26,1.26,0,0,1,.25-.56,1.08,1.08,0,0,1,.48-.33,2.35,2.35,0,0,1,.74-.11,1.82,1.82,0,0,1,.67.1.78.78,0,0,1,.38.24.9.9,0,0,1,.18.38,5,5,0,0,1,0,.5v.74a6.39,6.39,0,0,0,0,1,1.22,1.22,0,0,0,.14.39h-.58a1.56,1.56,0,0,1-.11-.4m0-1.23a4.29,4.29,0,0,1-.9.21,1.54,1.54,0,0,0-.48.11.54.54,0,0,0-.22.17.5.5,0,0,0-.07.27.46.46,0,0,0,.16.36.72.72,0,0,0,.49.15,1.2,1.2,0,0,0,.57-.14.88.88,0,0,0,.36-.38,1.3,1.3,0,0,0,.09-.55Z"/><path class="cls-1" d="M247,34V29.52h.5v.42a1.39,1.39,0,0,1,.4-.37,1.13,1.13,0,0,1,.54-.12,1.25,1.25,0,0,1,1.21.82,2.15,2.15,0,0,1,.17.85,2.19,2.19,0,0,1-.18.9,1.42,1.42,0,0,1-.52.61,1.37,1.37,0,0,1-.72.21,1,1,0,0,1-.49-.12.94.94,0,0,1-.36-.29V34Zm.5-2.85a1.42,1.42,0,0,0,.25.93.78.78,0,0,0,.62.3.8.8,0,0,0,.62-.31,1.45,1.45,0,0,0,.26-1,1.42,1.42,0,0,0-.25-.93.75.75,0,0,0-.61-.31.79.79,0,0,0-.62.33,1.47,1.47,0,0,0-.27.95"/><path class="cls-1" d="M252.3,31.72l.57.07a1.34,1.34,0,0,1-.5.77,1.44,1.44,0,0,1-.92.28,1.48,1.48,0,0,1-1.13-.44,1.7,1.7,0,0,1-.42-1.23,1.8,1.8,0,0,1,.42-1.27,1.43,1.43,0,0,1,1.09-.45,1.42,1.42,0,0,1,1.07.44,1.79,1.79,0,0,1,.41,1.25v.14h-2.42a1.25,1.25,0,0,0,.3.82.91.91,0,0,0,.68.29.86.86,0,0,0,.51-.16,1,1,0,0,0,.34-.51m-1.8-.89h1.81a1.1,1.1,0,0,0-.21-.61.84.84,0,0,0-.68-.32.93.93,0,0,0-.64.25,1,1,0,0,0-.28.68"/><path class="cls-1" d="M253.19,32.77V29.52h.49V30a1.09,1.09,0,0,1,1-.53,1.05,1.05,0,0,1,.59.15.81.81,0,0,1,.33.42,1.15,1.15,0,0,1,1-.57,1,1,0,0,1,.74.27,1.14,1.14,0,0,1,.26.82v2.23H257V30.72a1.35,1.35,0,0,0,0-.47.45.45,0,0,0-.19-.24.62.62,0,0,0-.33-.08.77.77,0,0,0-.57.22,1,1,0,0,0-.23.73v1.89h-.55V30.66a.91.91,0,0,0-.13-.55.52.52,0,0,0-.44-.18.8.8,0,0,0-.43.12.72.72,0,0,0-.29.35,2.38,2.38,0,0,0-.08.68v1.69Z"/><path class="cls-1" d="M258,28.29h.55v.63H258Zm0,1.23h.55v3.25H258Z"/><path class="cls-1" d="M259,32.77V29.52h.49V30a1.42,1.42,0,0,1,.35-.45.66.66,0,0,1,.36-.11,1.05,1.05,0,0,1,.56.18l-.19.51a.77.77,0,0,0-.4-.12.46.46,0,0,0-.32.11.55.55,0,0,0-.21.3,2.15,2.15,0,0,0-.09.64v1.7Z"/><path class="cls-1" d="M260.75,28.29h.55v.63h-.55Zm0,1.23h.55v3.25h-.55Z"/><path class="cls-1" d="M261.76,32.77V29.52h.49V30a1.12,1.12,0,0,1,1-.53,1.05,1.05,0,0,1,.59.15.77.77,0,0,1,.33.42,1.17,1.17,0,0,1,1-.57,1,1,0,0,1,.74.27,1.09,1.09,0,0,1,.26.82v2.23h-.54V30.72a1.29,1.29,0,0,0-.06-.47.45.45,0,0,0-.19-.24.62.62,0,0,0-.33-.08.77.77,0,0,0-.57.22,1,1,0,0,0-.23.73v1.89h-.55V30.66a.91.91,0,0,0-.13-.55.52.52,0,0,0-.44-.18.82.82,0,0,0-.43.12.65.65,0,0,0-.28.35,2,2,0,0,0-.09.68v1.69Z"/><polygon class="cls-1" points="206.82 25.45 206.82 15.4 214.27 15.4 214.27 17.1 208.85 17.1 208.85 19.33 213.89 19.33 213.89 21.02 208.85 21.02 208.85 23.75 214.46 23.75 214.46 25.45 206.82 25.45"/><polygon class="cls-1" points="217.9 25.45 214.31 15.4 216.51 15.4 219.06 22.84 221.52 15.4 223.67 15.4 220.07 25.45 217.9 25.45"/><path class="cls-1" d="M231.88,25.45h-2.21l-.87-2.28h-4L224,25.45H221.8l3.91-10h2.15Zm-3.73-4-1.39-3.73-1.36,3.73Z"/><polygon class="cls-1" points="232.14 25.45 232.14 15.4 234.11 15.4 238.22 22.11 238.22 15.4 240.11 15.4 240.11 25.45 238.07 25.45 234.02 18.9 234.02 25.45 232.14 25.45"/><path class="cls-1" d="M246.09,21.75V20.06h4.37v4a5.51,5.51,0,0,1-1.85,1.09,6.79,6.79,0,0,1-2.45.47,5.51,5.51,0,0,1-2.75-.66,4.19,4.19,0,0,1-1.76-1.89,6.18,6.18,0,0,1-.59-2.68,5.75,5.75,0,0,1,.66-2.79,4.42,4.42,0,0,1,1.93-1.87,5.2,5.2,0,0,1,2.4-.5A4.8,4.8,0,0,1,249,16a3.54,3.54,0,0,1,1.36,2.17l-2,.38a2.11,2.11,0,0,0-.8-1.17,2.43,2.43,0,0,0-1.46-.43,2.71,2.71,0,0,0-2.11.85,3.51,3.51,0,0,0-.79,2.5A3.94,3.94,0,0,0,244,23a2.64,2.64,0,0,0,2.08.9,3.64,3.64,0,0,0,1.28-.25,4.43,4.43,0,0,0,1.1-.61V21.75Z"/><path class="cls-1" d="M251.49,25.45v-10h7.45v1.7h-5.42v2.23h5V21h-5v2.74h5.61v1.69Zm2.57-10.63.95-2.05h2.16l-1.88,2.05Z"/><polygon class="cls-1" points="260.06 25.45 260.06 15.48 262.09 15.48 262.09 23.75 267.14 23.75 267.14 25.45 260.06 25.45"/><rect class="cls-1" x="267.68" y="15.4" width="2.03" height="10.05"/><path class="cls-1" d="M277.23,21.75l2,.63a4.48,4.48,0,0,1-1.51,2.44,4.73,4.73,0,0,1-6-.57,5.23,5.23,0,0,1-1.29-3.74,5.44,5.44,0,0,1,1.3-3.89,4.43,4.43,0,0,1,3.41-1.39,4.17,4.17,0,0,1,3,1.09,3.92,3.92,0,0,1,1,1.85l-2,.48a2.16,2.16,0,0,0-.74-1.23A2.11,2.11,0,0,0,275,17a2.29,2.29,0,0,0-1.81.8,4,4,0,0,0-.7,2.6,4.21,4.21,0,0,0,.69,2.72,2.23,2.23,0,0,0,1.78.81,2,2,0,0,0,1.39-.52,3,3,0,0,0,.84-1.62"/><path class="cls-1" d="M279.68,20.49a6.47,6.47,0,0,1,.46-2.58,4.76,4.76,0,0,1,.94-1.38,3.72,3.72,0,0,1,1.3-.9,5.4,5.4,0,0,1,2.16-.4,4.73,4.73,0,0,1,3.56,1.38,5.25,5.25,0,0,1,1.33,3.83,5.29,5.29,0,0,1-1.32,3.81,5.28,5.28,0,0,1-7.1,0,5.14,5.14,0,0,1-1.33-3.76m2.09-.07a3.77,3.77,0,0,0,.79,2.58,2.7,2.7,0,0,0,4,0,3.88,3.88,0,0,0,.77-2.62,3.82,3.82,0,0,0-.75-2.58,2.81,2.81,0,0,0-4,0,3.83,3.83,0,0,0-.77,2.6"/><polygon class="cls-1" points="186.4 38.28 183.35 23.71 167.53 24.45 186.4 38.28"/><polygon class="cls-1" points="167.53 24.45 166.89 26.33 183.73 39.06 186.4 38.28 167.53 24.45"/><polygon class="cls-1" points="195.11 23.16 199.04 35.24 202.56 22.8 195.11 23.16"/><polygon class="cls-1" points="195.1 23.15 191.91 24.58 195.18 35.55 199.04 35.24 195.1 23.15"/><polygon class="cls-1" points="180.52 10.18 178.64 1.19 166.8 8.22 180.52 10.18"/><polygon class="cls-1" points="166.8 8.19 165.88 11.64 178.76 13.24 180.52 10.18 166.8 8.19"/><polygon class="cls-1" points="191.39 11.73 188.85 3.9 186.97 6.91 188.91 14.22 191.39 11.73"/><polygon class="cls-1" points="191.4 11.73 198.43 12.74 188.89 4.04 191.4 11.73"/><polygon class="cls-1" points="191.33 11.72 188.86 14.2 195.87 14.92 198.48 12.74 191.33 11.72"/></g></g></svg>