<?xml version="1.0" encoding="utf-8"?>
<!-- Generator: Adobe Illustrator 22.1.0, SVG Export Plug-In . SVG Version: 6.00 Build 0)  -->
<svg version="1.1" id="Camada_1" xmlns="http://www.w3.org/2000/svg" xmlns:xlink="http://www.w3.org/1999/xlink" x="0px" y="0px"
	 viewBox="0 0 269 237.9" style="enable-background:new 0 0 269 237.9;" xml:space="preserve">
<style type="text/css">
	.st0{fill:#FFFFFF;}
</style>
<g id="Camada_2_1_">
	<g id="Camada_1-2">
		<path class="st0" d="M79.3,232.1l4.8-1.3c0.3,1.4,1.5,2.3,2.9,2.3c1.1,0,2.1-0.5,2.1-1.7c0-0.7-0.4-1.3-1.7-1.7l-2.7-1
			c-3.3-1.2-4.8-3.4-4.8-5.9c0-3.8,3.4-6,7.4-6s6.6,2.1,7.3,5.4l-4.7,1.2c-0.2-1.1-1.2-1.9-2.3-1.9c-1.2,0-1.8,0.7-1.8,1.4
			s0.4,1.3,1.8,1.7l2.5,0.9c2.2,0.7,5.1,2.3,5.1,5.9c0,4.1-3.5,6.4-8,6.4C83,237.9,79.9,236,79.3,232.1z"/>
		<path class="st0" d="M96.8,227.4c0-7.1,5.1-10.6,9.7-10.6c3.6,0,5.7,2,6,2.7h0.1v-2.3h6v20.3h-6v-2.3h-0.1c-0.3,0.8-2.4,2.7-6,2.7
			C101.9,237.9,96.8,234.4,96.8,227.4z M112.8,227.4c-0.1-2.8-2.4-4.9-5.1-4.8c-2.8,0.1-4.9,2.4-4.8,5.1c0.1,2.7,2.3,4.8,5,4.9
			c2.7,0,4.9-2.1,5-4.8C112.8,227.6,112.8,227.5,112.8,227.4L112.8,227.4z"/>
		<path class="st0" d="M142,217.2v20.3h-6v-2.6c-1.3,2-3.6,3.1-6,3c-4.1,0-7.6-2.5-7.6-8.8v-12h6v10.9c0,2.5,1.3,4.4,3.8,4.4
			s3.7-1.9,3.7-4.4v-10.9H142z M134.8,214.8h-4.9l2.5-6.2h5.3L134.8,214.8z"/>
		<path class="st0" d="M166.6,209.8v27.7h-6.1v-2.3h-0.1c-0.3,0.8-2.4,2.7-6,2.7c-4.6,0-9.7-3.5-9.7-10.5s5.1-10.6,9.7-10.6
			c3.6,0,5.7,2,6,2.7h0.1v-9.7H166.6z M160.7,227.4c-0.1-2.8-2.4-4.9-5.1-4.8c-2.8,0.1-4.9,2.4-4.8,5.1c0.1,2.7,2.3,4.8,5,4.9
			c2.7,0.1,4.9-2.1,5-4.8C160.7,227.6,160.7,227.5,160.7,227.4L160.7,227.4z"/>
		<path class="st0" d="M189.5,229.7h-14.4c0.8,2.2,2.8,3.3,5.5,3.3c1.8,0.1,3.5-0.5,4.9-1.6l2.7,2.9c-2.1,2.4-5.1,3.7-8.2,3.6
			c-5.6,0-10.7-3.8-10.7-10.5c-0.3-5.6,4.1-10.3,9.6-10.6c0.2,0,0.5,0,0.7,0C184.8,216.8,190.8,220.4,189.5,229.7z M175,225.4h9.2
			c-0.4-2.1-2.4-3.6-4.5-3.5C177.5,221.8,175.6,223.2,175,225.4z"/>
		<circle class="st0" cx="120.2" cy="122.3" r="11"/>
		<path class="st0" d="M104.3,139.5c-2.7-0.7-5.5-1-8.3-1c-6.4,0-11.1,1.9-17.4,7l-1.2,0.9l-0.7-1.3c-1.9-3.3-7-5.7-12.1-5.7
			c-4.1,0-5.3,0.6-5.3,4.9V195c0,2.9,1.2,3.8,2.4,4.2c1.8,0.7,4.4,0.7,7.3,0.7h1c2.9,0,5.6,0,7.3-0.7c1.2-0.5,2.4-1.3,2.4-4.2v-35
			l0.6-0.4c2.9-2,6.2-3.3,9.7-3.7c2.7-0.3,5.3,0.1,7.8,1.1c1.1,0.4,2.3,0.3,3.3-0.1c0.4-0.2,0.7-0.6,0.9-1c0.5-2.2,1.2-4.7,1.9-7.2
			c0.6-2.2,1.2-4.3,1.6-6l0.2-0.7C106.2,140.3,106.2,140.1,104.3,139.5z"/>
		<path class="st0" d="M124.8,139.4c-1.5,0-14.8,0.4-14.8,13v42.5c0,2.9,1.2,3.8,2.4,4.2c1.8,0.7,4.4,0.7,7.3,0.7h1
			c2.9,0,5.6,0,7.3-0.7c1.2-0.5,2.4-1.3,2.4-4.2v-50.8C130.4,140.7,128.8,139.4,124.8,139.4z"/>
		<path class="st0" d="M176.9,138.5c-6.6,0-12.2,2.1-19.6,7.4l-1.2,0.9l-0.7-1.3c-1.7-3.5-6.9-6-12.3-6c-4.1,0-5.3,0.6-5.3,4.9v50.6
			c0,2.9,1.2,3.8,2.5,4.2c1.8,0.7,4.5,0.7,7.4,0.7h1c2.9,0,5.6,0,7.3-0.7c1.2-0.5,2.4-1.3,2.4-4.2V159l0.6-0.4
			c5.1-3.5,10.2-5.7,13.2-5.7c5.1,0,7.1,2.5,7.1,9v33c0,2.9,1.2,3.8,2.4,4.2c1.8,0.7,4.4,0.7,7.3,0.7h1c2.9,0,5.6,0,7.3-0.7
			c1.2-0.5,2.4-1.3,2.4-4.2v-33C199.8,146.4,192.1,138.5,176.9,138.5z"/>
		<path class="st0" d="M238.2,138.5c-22.7,0-30.8,16-30.8,31c0,22.7,15.9,30.8,30.8,30.8s30.8-8.1,30.8-30.8
			C269,154.5,260.9,138.5,238.2,138.5z M238.2,186.1c-6.9,0-10.3-5.4-10.3-16.6s3.4-16.6,10.3-16.6s10.3,5.4,10.3,16.6
			S245.1,186.1,238.2,186.1z"/>
		<path class="st0" d="M41.1,186.1c-2.9,0-7.8-1.3-7.8-9.7v-21.5h9.6c8.9,0,9.3-10.1,9.3-11.8c0-3.2-1.2-3.8-3.1-3.8H33.3V123
			c0-3.5-1.7-4.9-5.8-4.9c-0.6,0-14.8,0.2-14.8,13.2v8H3.3c-0.8-0.1-1.7,0.2-2.3,0.7c-1,1-1,3.3-1,6v1c0,2.6,0,6.3,1,7.3
			c0.6,0.5,1.5,0.8,2.3,0.7h9.4v21.5c0,15.7,8,24,23.3,24c2.6,0,5.2-0.1,7.8-0.4c2.1-0.2,3.7-2.1,3.5-4.2c0-0.2,0-0.4-0.1-0.5
			l-1.5-6.3c-0.4-1.7-2-3-3.8-2.9L41.1,186.1z"/>
		<path class="st0" d="M228.9,67.1l-32.4,18.7v-0.1l-9,5.2l-16.2,9.3c-5,2.9-11.5,1.2-14.4-3.9c0,0,0-0.1-0.1-0.1
			c-2.8-5.1-0.9-11.5,4.2-14.4l11.6-6.7c4.5-2.6,6-8.3,3.4-12.7c-0.8-1.4-2-2.6-3.4-3.4L161,52.1c-5.2-2.6-7.3-9-4.6-14.2
			s9-7.3,14.2-4.6c0.3,0.2,0.7,0.4,1,0.6l16,9.3V32.8l0,0L176,26.1c-9.3-5.4-21.2-2.2-26.6,7.1s-2.2,21.2,7.1,26.6l11.7,6.8
			c0.1,0.1,0.2,0.2,0.2,0.3c0,0.1-0.1,0.3-0.2,0.3L156.6,74c-9.3,5.3-12.6,17.1-7.5,26.5c2.5,4.6,6.8,7.9,11.8,9.3
			c5,1.4,10.4,0.7,14.9-1.9l11.7-6.7l9-5.2l41.4-23.8L228.9,67.1z"/>
		<path class="st0" d="M265.4,33.8c-5.4-9.3-17.3-12.5-26.6-7.1L227,33.5c-0.1,0.1-0.3,0.1-0.4,0c-0.1-0.1-0.2-0.2-0.2-0.3V19.7
			c0-10.7-8.5-19.5-19.2-19.7H207c-10.8,0-19.5,8.7-19.5,19.5v71.3l9-5.2V19.5c0-5.8,4.7-10.5,10.5-10.5h0.1
			c5.8,0.2,10.4,4.9,10.4,10.8v13.4c0,5.2,4.2,9.3,9.3,9.3c1.6,0,3.2-0.4,4.7-1.3l11.8-6.8c5-3,11.5-1.4,14.5,3.6
			c3,5,1.4,11.5-3.6,14.5c-0.1,0.1-0.2,0.1-0.3,0.2l-15.9,9.2l9,5.2l11.5-6.6C267.6,55,270.8,43.1,265.4,33.8z"/>
		<path class="st0" d="M258.2,73.7L196.4,38v10.3l57.3,33.1c5.1,2.8,6.9,9.2,4.1,14.3s-9.2,6.9-14.3,4.1c-0.1-0.1-0.2-0.1-0.3-0.2
			l-11.8-6.8c-4.5-2.6-10.2-1.1-12.7,3.4c-0.8,1.4-1.3,3-1.3,4.7v13.4c0,5.8-4.6,10.6-10.4,10.8c-5.8,0.1-10.6-4.6-10.7-10.4
			c0-0.1,0-0.1,0-0.2V96.1l-9,5.2v13.3c0,10.8,8.7,19.5,19.5,19.5c0,0,0,0,0.1,0h0.3c10.7-0.2,19.2-9,19.2-19.7V101
			c0-0.1,0.1-0.3,0.2-0.3c0.1-0.1,0.3-0.1,0.4,0l11.8,6.8c9.3,5.4,21.2,2.2,26.6-7.1C270.8,91,267.6,79.1,258.2,73.7L258.2,73.7z"/>
	</g>
</g>
</svg>
