<svg xmlns="http://www.w3.org/2000/svg" viewBox="0 0 269.02 237.9"><defs><style>.cls-1{fill:#524889;}.cls-2{fill:#fff;}.cls-3{fill:#fbba33;}.cls-4{fill:#55468d;}</style></defs><g id="Camada_2" data-name="Camada 2"><g id="Camada_1-2" data-name="Camada 1"><path class="cls-1" d="M79.31,232.12l4.8-1.29A2.94,2.94,0,0,0,87,233.17c1.09,0,2.1-.54,2.1-1.68,0-.66-.39-1.29-1.71-1.71l-2.74-1c-3.35-1.21-4.8-3.4-4.8-5.93,0-3.79,3.4-6,7.38-6s6.6,2.15,7.3,5.43l-4.72,1.17a2.38,2.38,0,0,0-2.35-1.91c-1.17,0-1.75.7-1.75,1.41s.39,1.28,1.75,1.71l2.54.94c2.19.74,5.08,2.26,5.08,5.93,0,4.1-3.48,6.41-8,6.41C83,237.9,79.93,236,79.31,232.12Z"/><path class="cls-1" d="M96.84,227.36c0-7.07,5.07-10.55,9.68-10.55,3.59,0,5.7,2,6,2.7h.12V217.2h6v20.31h-6V235.2h-.12c-.31.75-2.42,2.7-6,2.7C101.91,237.9,96.84,234.42,96.84,227.36Zm16,0a5,5,0,1,0-5,5.15A4.9,4.9,0,0,0,112.81,227.36Z"/><path class="cls-1" d="M142,217.2v20.31h-6v-2.58a6.84,6.84,0,0,1-6,3c-4.1,0-7.57-2.54-7.57-8.75v-12h6.05v10.9c0,2.54,1.29,4.41,3.79,4.41s3.74-1.87,3.74-4.41V217.2Zm-7.18-2.42h-4.92l2.54-6.16h5.27Z"/><path class="cls-1" d="M166.58,209.79v27.72h-6.05V235.2h-.12c-.31.75-2.42,2.7-6,2.7-4.61,0-9.69-3.48-9.69-10.54s5.08-10.55,9.69-10.55c3.59,0,5.7,2,6,2.7h.12v-9.72Zm-5.9,17.57a5,5,0,1,0-5,5.15A4.89,4.89,0,0,0,160.68,227.36Z"/><path class="cls-1" d="M189.54,229.7H175.1c.81,2.18,2.84,3.28,5.54,3.28a7.69,7.69,0,0,0,4.88-1.56l2.73,2.85A10.4,10.4,0,0,1,180,237.9c-5.62,0-10.69-3.83-10.69-10.5a10.12,10.12,0,0,1,10.34-10.59C184.78,216.81,190.83,220.41,189.54,229.7ZM175,225.36h9.25a4.36,4.36,0,0,0-4.53-3.47A4.65,4.65,0,0,0,175,225.36Z"/><circle class="cls-1" cx="120.16" cy="122.29" r="11.03"/><path class="cls-2" d="M104.27,139.52a31.52,31.52,0,0,0-8.28-1c-6.37,0-11.08,1.89-17.37,7l-1.16.94-.74-1.3c-1.89-3.3-7-5.71-12.13-5.71-4.07,0-5.26.65-5.26,4.91v50.63c0,2.91,1.21,3.77,2.38,4.23,1.76.68,4.44.67,7.32.68h1c2.89,0,5.56,0,7.32-.68,1.17-.46,2.38-1.32,2.38-4.23V160l.55-.38A20.76,20.76,0,0,1,90,155.92,16.79,16.79,0,0,1,97.81,157a4.58,4.58,0,0,0,3.32-.1,1.59,1.59,0,0,0,.88-1c.54-2.16,1.24-4.72,1.91-7.16.61-2.21,1.18-4.33,1.6-6l.18-.67C106.18,140.33,106.24,140.11,104.27,139.52Z"/><path class="cls-2" d="M124.75,139.39c-1.51,0-14.78.37-14.78,13v42.52c0,2.91,1.2,3.77,2.38,4.23,1.75.68,4.44.68,7.31.68h1c2.88,0,5.56,0,7.31-.68,1.18-.46,2.38-1.32,2.38-4.23V144.12C130.36,140.72,128.79,139.39,124.75,139.39Z"/><path class="cls-2" d="M176.87,138.51c-6.58,0-12.24,2.13-19.55,7.35l-1.21.87-.67-1.33c-1.74-3.48-6.9-6-12.27-6-4.07,0-5.26.65-5.26,4.91v50.63c0,2.9,1.25,3.76,2.46,4.22,1.8.69,4.52.7,7.42.69h1c2.88,0,5.56,0,7.31-.68,1.18-.46,2.38-1.32,2.38-4.23V159l.55-.38c5.1-3.51,10.17-5.69,13.25-5.69,5.11,0,7.1,2.53,7.1,9v33c0,2.91,1.2,3.77,2.38,4.23,1.75.68,4.45.67,7.31.68h1c2.87,0,5.56,0,7.31-.68,1.18-.46,2.38-1.32,2.38-4.23v-33C199.77,146.39,192.07,138.51,176.87,138.51Z"/><path class="cls-2" d="M238.18,138.51c-22.74,0-30.84,16-30.84,31,0,22.74,15.93,30.84,30.84,30.84S269,192.27,269,169.53C269,154.53,260.92,138.51,238.18,138.51Zm0,47.64c-6.91,0-10.27-5.44-10.27-16.62s3.36-16.62,10.27-16.62,10.27,5.43,10.27,16.62S245.09,186.15,238.18,186.15Z"/><path class="cls-2" d="M41.07,186.15c-2.91,0-7.8-1.27-7.8-9.74V154.88H42.9c8.87,0,9.32-10.06,9.32-11.82,0-3.21-1.15-3.84-3.14-3.84H33.27V123c0-3.48-1.67-4.9-5.78-4.9-.61,0-14.79.15-14.79,13.19v8H3.32a3.18,3.18,0,0,0-2.34.69c-1,1-1,3.31-1,6v1c0,2.57,0,6.28,1,7.29a3.1,3.1,0,0,0,2.31.7H12.7v21.53c0,15.67,8,24,23.26,24a76.13,76.13,0,0,0,7.81-.42,3.85,3.85,0,0,0,3.36-4.75L45.58,189a3.8,3.8,0,0,0-3.83-2.89Z"/><path class="cls-2" d="M228.85,67.05,196.44,85.76v-.08l-9,5.15-16.16,9.3a10.53,10.53,0,0,1-14.44-4A10.68,10.68,0,0,1,161,81.77l11.64-6.7a9.32,9.32,0,0,0,0-16.15L161,52.12A10.53,10.53,0,1,1,171.5,33.9l16,9.26V32.81h0L176,26.15a19.48,19.48,0,1,0-19.53,33.72l11.74,6.8a.34.34,0,0,1,.18.32.31.31,0,0,1-.18.31L156.55,74a19.68,19.68,0,0,0-7.49,26.5,19.3,19.3,0,0,0,11.82,9.28,19.29,19.29,0,0,0,14.91-1.89l11.69-6.72,9-5.15,41.36-23.8Z"/><path class="cls-3" d="M265.37,33.81a19.49,19.49,0,0,0-26.62-7.13L227,33.46a.32.32,0,0,1-.37,0,.32.32,0,0,1-.18-.31V19.71A19.68,19.68,0,0,0,207.22,0H207a19.49,19.49,0,0,0-19.48,19.49V90.83l9-5.15V19.49A10.52,10.52,0,0,1,207,9h.15a10.68,10.68,0,0,1,10.38,10.75V33.15a9.33,9.33,0,0,0,14,8.07l11.75-6.79a10.53,10.53,0,1,1,10.52,18.24l-15.94,9.2,9,5.18,11.46-6.62A19.51,19.51,0,0,0,265.37,33.81Z"/><path class="cls-4" d="M258.23,73.67,196.44,38V48.33l57.31,33.09a10.53,10.53,0,1,1-10.52,18.24l-11.75-6.79a9.33,9.33,0,0,0-14,8.08v13.43a10.67,10.67,0,0,1-10.38,10.75,10.52,10.52,0,0,1-10.67-10.52V96.11l-9,5.17v13.33A19.49,19.49,0,0,0,207,134.09h.26a19.68,19.68,0,0,0,19.23-19.71V101a.33.33,0,0,1,.18-.32.36.36,0,0,1,.37,0l11.75,6.79a19.48,19.48,0,1,0,19.48-33.75Z"/></g></g></svg>