<svg xmlns="http://www.w3.org/2000/svg" viewBox="0 0 99.99 110.5"><defs><style>.cls-1{fill:#fff;}</style></defs><g id="Camada_2" data-name="Camada 2"><g id="Camada_1-2" data-name="Camada 1"><path class="cls-1" d="M67.75,55.25,41,70.67v-.06l-7.38,4.24L20.35,82.51a8.68,8.68,0,0,1-11.9-3.29,8.8,8.8,0,0,1,3.41-11.84l9.59-5.52a7.69,7.69,0,0,0,0-13.31L11.8,43a8.67,8.67,0,1,1,8.69-15l13.17,7.62V27h0l-9.47-5.48A16.05,16.05,0,1,0,8.1,49.33l9.67,5.61a.27.27,0,0,1,.15.26.26.26,0,0,1-.15.26L8.17,61A16.22,16.22,0,0,0,2,82.82a16,16,0,0,0,9.74,7.65,16.34,16.34,0,0,0,4.31.59,16,16,0,0,0,8-2.15l9.63-5.54L41,79.12,75.13,59.51Z"/><path class="cls-1" d="M97.84,27.86A16.06,16.06,0,0,0,75.91,22l-9.69,5.59a.3.3,0,0,1-.45-.26V16.24A16.2,16.2,0,0,0,49.93,0h-.22A16.06,16.06,0,0,0,33.66,16.06V74.85L41,70.61V39.84h0V16.06a8.67,8.67,0,0,1,8.68-8.68h.11a8.8,8.8,0,0,1,8.56,8.86V27.31A7.69,7.69,0,0,0,69.92,34l9.68-5.59a8.67,8.67,0,1,1,8.67,15L75.13,51l7.39,4.26L92,49.79A16.07,16.07,0,0,0,97.84,27.86Z"/><path class="cls-1" d="M92,60.7,41,31.31v8.52L88.27,67.1a8.67,8.67,0,1,1-8.67,15l-9.68-5.59a7.69,7.69,0,0,0-11.53,6.66V94.26a8.81,8.81,0,0,1-8.56,8.86A8.67,8.67,0,0,1,41,94.44V79.2l-7.38,4.26v11A16.06,16.06,0,0,0,49.72,110.5h.21A16.21,16.21,0,0,0,65.77,94.26V83.19a.3.3,0,0,1,.45-.26l9.69,5.59A16.06,16.06,0,0,0,92,60.7Z"/></g></g></svg>